<svg width="24" height="24" fill="none" xmlns="http://www.w3.org/2000/svg"><path d="m6.864 17.355 2.113-.61L21.701 3.87a.547.547 0 0 0-.004-.768l-.762-.77a.532.532 0 0 0-.758-.004L7.487 15.17l-.624 2.184h.001ZM22.444.805l.762.772c1.05 1.064 1.06 2.781.019 3.835L10.114 18.68l-4.517 1.3a1.08 1.08 0 0 1-1.332-.747 1.098 1.098 0 0 1-.003-.607l1.314-4.608L18.653.785a2.657 2.657 0 0 1 3.79.02ZM8.62 2.19c.595 0 1.077.488 1.077 1.09A1.084 1.084 0 0 1 8.621 4.37H4.31c-1.191 0-2.156.977-2.156 2.18v13.087c0 1.205.965 2.181 2.155 2.181h12.932c1.19 0 2.156-.976 2.156-2.18v-4.363c0-.602.482-1.09 1.078-1.09.595 0 1.077.488 1.077 1.091v4.361c0 2.41-1.93 4.363-4.311 4.363H4.31C1.93 24 0 22.047 0 19.637V6.551c0-2.409 1.93-4.362 4.31-4.362h4.31Z" fill="#3369F3"/></svg>