<svg width="24" height="24" viewBox="0 0 24 24" fill="none" xmlns="http://www.w3.org/2000/svg">
    <path d="M6.86399 17.3548L8.97719 16.7452L21.7008 3.86998C21.8011 3.76714 21.857 3.62895 21.8563 3.48526C21.8557 3.34157 21.7985 3.20392 21.6972 3.10202L20.9352 2.33167C20.8859 2.28108 20.8271 2.2408 20.7621 2.21318C20.6971 2.18557 20.6273 2.17118 20.5567 2.17084C20.4861 2.17051 20.4162 2.18424 20.3509 2.21123C20.2857 2.23823 20.2265 2.27795 20.1768 2.32807L7.48679 15.1697L6.86279 17.3536L6.86399 17.3548ZM22.4436 0.805358L23.2056 1.57691C24.2568 2.64125 24.2664 4.35835 23.2248 5.41189L10.1136 18.6807L5.59679 19.9814C5.32103 20.0586 5.02591 20.0233 4.77619 19.8831C4.52647 19.743 4.34255 19.5095 4.26479 19.2339C4.20693 19.0357 4.2061 18.8253 4.26239 18.6267L5.57639 14.019L18.6528 0.784959C18.9014 0.534603 19.1974 0.336259 19.5235 0.201496C19.8497 0.0667323 20.1993 -0.00175299 20.5522 3.40934e-05C20.9051 0.00182118 21.254 0.0738449 21.5787 0.211905C21.9035 0.349964 22.1975 0.552496 22.4436 0.805358ZM8.62079 2.18888C9.21599 2.18888 9.69838 2.67725 9.69838 3.27961C9.69933 3.42201 9.6722 3.56319 9.61855 3.69509C9.56489 3.82699 9.48576 3.94703 9.38568 4.04833C9.2856 4.14963 9.16653 4.23021 9.03529 4.28546C8.90404 4.34072 8.76319 4.36956 8.62079 4.37035H4.31039C3.12 4.37035 2.1552 5.34709 2.1552 6.55062V19.6371C2.1552 20.8418 3.12 21.8185 4.31039 21.8185H17.2416C18.432 21.8185 19.398 20.8418 19.398 19.6371V15.2753C19.398 14.6729 19.8804 14.1846 20.4756 14.1846C21.0708 14.1846 21.5532 14.6729 21.5532 15.2765V19.6371C21.5532 22.0465 19.6224 24 17.2416 24H4.31039C1.9296 24 0 22.0465 0 19.6371V6.55062C0 4.14236 1.9296 2.18888 4.31039 2.18888H8.62079Z"
          fill="#3369F3"/>
</svg>
