<svg width="30" height="30" viewBox="0 0 30 30" fill="none" xmlns="http://www.w3.org/2000/svg">
    <path fill-rule="evenodd" clip-rule="evenodd"
          d="M26 2H4C2.89543 2 2 2.89543 2 4V18.8333L10.6547 16.8139C11.5486 16.6053 12.4635 16.5 13.3814 16.5H16.6186C17.5365 16.5 18.4514 16.6053 19.3453 16.8139L28 18.8333V4C28 2.89543 27.1046 2 26 2ZM4 0C1.79086 0 0 1.79086 0 4V26C0 26.8704 0.27798 27.6758 0.75 28.3324V28.5H0.877314C1.06142 28.7297 1.27034 28.9386 1.5 29.1227V29.25H1.66764C2.32421 29.722 3.12964 30 4 30H26C26.8704 30 27.6758 29.722 28.3324 29.25H28.5V29.1227C28.7297 28.9386 28.9386 28.7297 29.1227 28.5H29.25V28.3324C29.722 27.6758 30 26.8704 30 26V4C30 1.79086 28.2091 0 26 0H4ZM8.18186 10.9091C9.68809 10.9091 10.9091 9.68806 10.9091 8.18182C10.9091 6.67559 9.68809 5.45455 8.18186 5.45455C6.67563 5.45455 5.45459 6.67559 5.45459 8.18182C5.45459 9.68806 6.67563 10.9091 8.18186 10.9091Z"
          fill="#1A222C"/>
</svg>
